<svg id="Layer_1" data-name="Layer 1" xmlns="http://www.w3.org/2000/svg" viewBox="0 0 30 30"><defs><style>.cls-1{fill:#fff;}</style></defs><path class="cls-1" d="M26,26.43V24h0V21h0v-3h0v-3h0V12a.51.51,0,0,0-.41-.5l-3.11-.65v-6a.51.51,0,0,0-.4-.5l-8-1.76h-.22L7.21,3.87a.52.52,0,0,0-.42.5V9.05l-2.22.44a.51.51,0,0,0-.41.5V26.43H4a.52.52,0,0,0,0,1H26a.51.51,0,0,0,.51-.52A.52.52,0,0,0,26,26.43Zm-1-6.11L11.09,17.46v-2L25,18.34ZM11.09,18.51,25,21.36v2L11.09,20.49ZM25,17.29,11.09,14.43v-2L25,15.31ZM11.09,21.54,25,24.39v2H11.09ZM25,14.26,11.09,11.4v-2L25,12.37Zm-3.52-3.68-7-1.47V3.69l7,1.54ZM7.82,4.8l5.62-1.12V8.9l-2.76-.58h-.21l-2.65.52ZM5.18,10.41l4.89-1v1.92l-3.9.86a.51.51,0,0,0,.22,1l3.68-.81v2l-3.9.86a.51.51,0,0,0-.39.61.51.51,0,0,0,.61.39l3.68-.81v2l-3.9.87a.51.51,0,0,0-.39.61.51.51,0,0,0,.61.39l3.68-.82v2l-3.9.86a.52.52,0,0,0,.22,1l3.68-.82v4.93H5.18Z"/><path class="cls-1" d="M16.29,7.26l3,.62h.1a.51.51,0,0,0,.5-.41.5.5,0,0,0-.4-.6l-3-.63a.52.52,0,1,0-.21,1Z"/></svg>