<svg id="Layer_1" data-name="Layer 1" xmlns="http://www.w3.org/2000/svg" viewBox="0 0 30 30"><defs><style>.cls-1{fill:#fff;}</style></defs><path class="cls-1" d="M11.18,12.44v.06A4.65,4.65,0,0,0,14.06,14v-2.3a2.4,2.4,0,0,1-1.85-2.34,2.45,2.45,0,0,1,0-.27l-2.15-.85a4.64,4.64,0,0,0-.14,1.12,4.7,4.7,0,0,0,1.18,3.11Z"/><path class="cls-1" d="M9,10.85H5.12a1.66,1.66,0,0,0-1.65,1.59H9.75A6,6,0,0,1,9,10.85Z"/><path class="cls-1" d="M8,18.17a1.42,1.42,0,1,0-1.41-1.41A1.42,1.42,0,0,0,8,18.17Z"/><path class="cls-1" d="M15.91,9.33a1.19,1.19,0,0,0,0-.33l0-.07,0-.12A1.3,1.3,0,0,0,14.61,8a1.28,1.28,0,0,0-1.18.78.56.56,0,0,1,0,.12l0,.07a1.2,1.2,0,0,0,0,.33,1.3,1.3,0,0,0,2.6,0Z"/><path class="cls-1" d="M8.07,19.39a2.7,2.7,0,0,0-2.7,2.71v.52h5.41V22.1A2.71,2.71,0,0,0,8.07,19.39Z"/><path class="cls-1" d="M14.61,6.93a2.42,2.42,0,0,1,2,1.09l2.13-.84a4.67,4.67,0,0,0-8.29,0L12.6,8A2.42,2.42,0,0,1,14.61,6.93Z"/><path class="cls-1" d="M24.88,10.85H20.19a6,6,0,0,1-.71,1.59h7.05A1.66,1.66,0,0,0,24.88,10.85Z"/><path class="cls-1" d="M17,9.33a2.4,2.4,0,0,1-1.85,2.34V14a4.66,4.66,0,0,0,4-5.76L17,9.06A2.44,2.44,0,0,1,17,9.33Z"/><path class="cls-1" d="M18.57,13.54a5.77,5.77,0,0,1-7.91,0H3.47V23.69a1.65,1.65,0,0,0,1.65,1.65H24.88a1.65,1.65,0,0,0,1.65-1.65V13.54Zm-6.69,9.63a.55.55,0,0,1-.55.55H4.82a.56.56,0,0,1-.56-.55V22.1A3.82,3.82,0,0,1,6.4,18.68a2.52,2.52,0,1,1,4.14-1.92,2.48,2.48,0,0,1-.86,1.88,3.82,3.82,0,0,1,2.2,3.46Zm10.8-.92H13.51a.55.55,0,1,1,0-1.1h9.17a.55.55,0,0,1,0,1.1Zm0-2.35H13.51a.55.55,0,0,1-.56-.55.56.56,0,0,1,.56-.55h9.17a.55.55,0,0,1,.55.55A.54.54,0,0,1,22.68,19.9Zm0-2.34H13.51A.56.56,0,0,1,13,17a.55.55,0,0,1,.56-.55h9.17a.54.54,0,0,1,.55.55A.55.55,0,0,1,22.68,17.56Z"/></svg>