<svg id="Layer_1" data-name="Layer 1" xmlns="http://www.w3.org/2000/svg" viewBox="0 0 30 30"><defs><style>.cls-1{fill:#fff;}</style></defs><path class="cls-1" d="M11.9,19a.54.54,0,0,1-.54.54H4.88A.54.54,0,0,1,4.33,19V17.88a3.79,3.79,0,0,1,2.12-3.4,2.5,2.5,0,1,1,3.27,0,3.78,3.78,0,0,1,2.18,3.43ZM22.64,18H13.51a.55.55,0,0,1,0-1.09h9.13a.55.55,0,1,1,0,1.09Zm0-2.33H13.51a.55.55,0,0,1,0-1.09h9.13a.55.55,0,1,1,0,1.09Zm.55-2.88a.55.55,0,0,1-.55.55H13.51a.55.55,0,0,1,0-1.1h9.13A.55.55,0,0,1,23.19,12.82Z"/><path class="cls-1" d="M8.12,15.19a2.7,2.7,0,0,0-2.7,2.69v.52h5.39v-.52A2.7,2.7,0,0,0,8.12,15.19Z"/><path class="cls-1" d="M8.06,15.07a1.41,1.41,0,1,0-1.4-1.4A1.41,1.41,0,0,0,8.06,15.07Z"/><path class="cls-1" d="M13.51,12.27a.55.55,0,0,0,0,1.1h9.13a.55.55,0,0,0,0-1.1Z"/><path class="cls-1" d="M22.64,14.61H13.51a.55.55,0,0,0,0,1.09h9.13a.55.55,0,1,0,0-1.09Z"/><path class="cls-1" d="M22.64,16.94H13.51a.55.55,0,0,0,0,1.09h9.13a.55.55,0,1,0,0-1.09Z"/><path class="cls-1" d="M9.72,14.45a2.51,2.51,0,1,0-3.27,0,3.79,3.79,0,0,0-2.12,3.4V19a.54.54,0,0,0,.55.54h6.48A.54.54,0,0,0,11.9,19V17.88A3.78,3.78,0,0,0,9.72,14.45ZM8.06,11.17a1.41,1.41,0,1,1-1.4,1.4A1.41,1.41,0,0,1,8.06,11.17Zm2.75,7.23H5.42v-.52a2.7,2.7,0,0,1,5.39,0Z"/><path class="cls-1" d="M24.82,6.7H5.18A2.74,2.74,0,0,0,2.44,9.44V20.56A2.74,2.74,0,0,0,5.18,23.3H24.82a2.74,2.74,0,0,0,2.74-2.74V9.44A2.74,2.74,0,0,0,24.82,6.7Zm0,15.5H5.18a1.64,1.64,0,0,1-1.64-1.64V9.37A1.65,1.65,0,0,1,5.18,7.8H24.82a1.64,1.64,0,0,1,1.64,1.57V20.56A1.63,1.63,0,0,1,24.82,22.2Z"/></svg>