<svg id="Layer_1" data-name="Layer 1" xmlns="http://www.w3.org/2000/svg" viewBox="0 0 30 30"><defs><style>.cls-1{fill:#fff;}</style></defs><path class="cls-1" d="M13.36,3.62,7.75,4.74v4l2.65-.53h.21l2.75.58Z"/><polygon class="cls-1" points="11.02 26.38 24.89 26.38 24.89 24.34 11.02 21.48 11.02 26.38"/><path class="cls-1" d="M5.11,26.38H10V21.45l-3.67.81a.51.51,0,0,1-.61-.39.5.5,0,0,1,.39-.61L10,20.4v-2l-3.67.81a.51.51,0,0,1-.61-.39.5.5,0,0,1,.39-.61L10,17.37v-2l-3.67.81a.51.51,0,0,1-.22-1L10,14.34v-2l-3.67.81a.51.51,0,1,1-.22-1L10,11.31V9.39l-4.88,1Z"/><path class="cls-1" d="M21.38,5.17l-7-1.53V9.06l7,1.46ZM19.85,7.43a.5.5,0,0,1-.5.4h-.11l-3-.62a.51.51,0,0,1-.4-.61.5.5,0,0,1,.6-.39l3,.62A.51.51,0,0,1,19.85,7.43Z"/><polygon class="cls-1" points="11.02 20.43 24.89 23.29 24.89 21.31 11.02 18.45 11.02 20.43"/><polygon class="cls-1" points="11.02 11.35 24.89 14.2 24.89 12.31 11.02 9.4 11.02 11.35"/><polygon class="cls-1" points="11.02 17.4 24.89 20.26 24.89 18.28 11.02 15.42 11.02 17.4"/><polygon class="cls-1" points="11.02 14.38 24.89 17.23 24.89 15.25 11.02 12.39 11.02 14.38"/></svg>