<svg id="Layer_1" data-name="Layer 1" xmlns="http://www.w3.org/2000/svg" viewBox="0 0 30 30"><defs><style>.cls-1{fill:#fff;}</style></defs><path class="cls-1" d="M24.88,9.75H20.37c0-.14,0-.28,0-.42a5.78,5.78,0,0,0-11.55,0c0,.14,0,.28,0,.42H5.12A2.75,2.75,0,0,0,2.37,12.5V23.69a2.75,2.75,0,0,0,2.75,2.75H24.88a2.75,2.75,0,0,0,2.75-2.75V12.5A2.75,2.75,0,0,0,24.88,9.75Zm0,1.1a1.66,1.66,0,0,1,1.65,1.59h-7a6,6,0,0,0,.71-1.59ZM11.12,12.44A4.7,4.7,0,0,1,9.94,9.33a4.64,4.64,0,0,1,.14-1.12l2.15.85a2.45,2.45,0,0,0,0,.27,2.4,2.4,0,0,0,1.85,2.34V14a4.65,4.65,0,0,1-2.88-1.47v-.06ZM15.8,8.81l0,.12,0,.07a1.19,1.19,0,0,1,0,.33,1.3,1.3,0,0,1-2.6,0,1.2,1.2,0,0,1,0-.33l0-.07a.56.56,0,0,0,0-.12A1.28,1.28,0,0,1,14.61,8,1.3,1.3,0,0,1,15.8,8.81Zm-.64,2.86A2.4,2.4,0,0,0,17,9.33a2.44,2.44,0,0,0,0-.27l2.15-.85a4.66,4.66,0,0,1-4,5.76Zm-.55-7a4.68,4.68,0,0,1,4.15,2.52L16.63,8a2.41,2.41,0,0,0-4,0l-2.13-.84A4.66,4.66,0,0,1,14.61,4.66ZM5.12,10.85H9a6,6,0,0,0,.71,1.59H3.47A1.66,1.66,0,0,1,5.12,10.85ZM24.88,25.34H5.12a1.65,1.65,0,0,1-1.65-1.65V13.54h7.19a5.77,5.77,0,0,0,7.91,0h8V23.69A1.65,1.65,0,0,1,24.88,25.34Z"/><path class="cls-1" d="M22.68,16.46H13.51A.55.55,0,0,0,13,17a.56.56,0,0,0,.56.55h9.17a.55.55,0,0,0,.55-.55A.54.54,0,0,0,22.68,16.46Z"/><path class="cls-1" d="M22.68,18.8H13.51a.56.56,0,0,0-.56.55.55.55,0,0,0,.56.55h9.17a.54.54,0,0,0,.55-.55A.55.55,0,0,0,22.68,18.8Z"/><path class="cls-1" d="M22.68,21.15H13.51a.55.55,0,1,0,0,1.1h9.17a.55.55,0,0,0,0-1.1Z"/><path class="cls-1" d="M9.68,18.64a2.48,2.48,0,0,0,.86-1.88A2.52,2.52,0,1,0,6.4,18.68,3.82,3.82,0,0,0,4.26,22.1v1.07a.56.56,0,0,0,.56.55h6.51a.55.55,0,0,0,.55-.55V22.1A3.82,3.82,0,0,0,9.68,18.64ZM8,15.34a1.42,1.42,0,1,1,0,2.83,1.42,1.42,0,0,1,0-2.83Zm2.76,7.28H5.37V22.1a2.71,2.71,0,1,1,5.41,0Z"/></svg>