<svg id="Layer_1" data-name="Layer 1" xmlns="http://www.w3.org/2000/svg" viewBox="0 0 30 30"><defs><style>.cls-1{fill:#fff;}</style></defs><path class="cls-1" d="M26.46,9.37A1.64,1.64,0,0,0,24.82,7.8H5.18A1.64,1.64,0,0,0,3.54,9.37V20.56A1.63,1.63,0,0,0,5.18,22.2H24.82a1.63,1.63,0,0,0,1.64-1.64ZM11.9,19a.54.54,0,0,1-.54.54H4.88A.54.54,0,0,1,4.33,19V17.88a3.79,3.79,0,0,1,2.12-3.4,2.49,2.49,0,1,1,3.27,0,3.78,3.78,0,0,1,2.18,3.43ZM22.64,18H13.51a.55.55,0,0,1,0-1.09h9.13a.55.55,0,1,1,0,1.09Zm0-2.33H13.51a.55.55,0,0,1,0-1.09h9.13a.55.55,0,1,1,0,1.09Zm0-2.33H13.51a.55.55,0,0,1,0-1.1h9.13a.55.55,0,0,1,0,1.1Z"/><path class="cls-1" d="M8.12,15.19a2.7,2.7,0,0,0-2.7,2.69v.52h5.39v-.52A2.7,2.7,0,0,0,8.12,15.19Z"/><path class="cls-1" d="M8.06,14a1.41,1.41,0,1,0-1.29-.86A1.41,1.41,0,0,0,8.06,14Z"/></svg>