<svg xmlns="http://www.w3.org/2000/svg" xmlns:xlink="http://www.w3.org/1999/xlink" viewBox="0 0 60 60"><defs><style>.cls-1{isolation:isolate;}.cls-2{fill:url(#linear-gradient);}.cls-3{mix-blend-mode:color;}.cls-4{fill:#7c3a74;}.cls-5{fill:#393939;}.cls-6{fill:#fff;}</style><linearGradient id="linear-gradient" x1="8343.38" y1="2085.31" x2="8291.06" y2="2137.63" gradientTransform="translate(8347.22 2141.47) rotate(180)" gradientUnits="userSpaceOnUse"><stop offset="0" stop-color="#a6a6a6"/><stop offset="0.14" stop-color="#818181"/><stop offset="0.34" stop-color="#535353"/><stop offset="0.53" stop-color="#2f2f2f"/><stop offset="0.71" stop-color="#151515"/><stop offset="0.87" stop-color="#050505"/><stop offset="1"/></linearGradient></defs><g class="cls-1"><g id="Layer_1" data-name="Layer 1"><rect class="cls-2" x="0.91" y="0.91" width="58.18" height="58.18" rx="10"/><g class="cls-3"><rect class="cls-4" x="1.41" y="1.41" width="57.18" height="57.18" rx="9.5"/><path class="cls-5" d="M49.09,1.91a9,9,0,0,1,9,9V49.09a9,9,0,0,1-9,9H10.91a9,9,0,0,1-9-9V10.91a9,9,0,0,1,9-9H49.09m0-1H10.91a10,10,0,0,0-10,10V49.09a10,10,0,0,0,10,10H49.09a10,10,0,0,0,10-10V10.91a10,10,0,0,0-10-10Z"/></g><path class="cls-6" d="M30,20.07a5.82,5.82,0,1,0,5.82,5.82A5.83,5.83,0,0,0,30,20.07Zm0,10.18a4.36,4.36,0,1,1,4.36-4.36A4.36,4.36,0,0,1,30,30.25Zm0-16A11.64,11.64,0,0,0,18.36,25.89C18.36,35.34,30,46.25,30,46.25S41.63,35.34,41.63,25.89A11.64,11.64,0,0,0,30,14.25Zm0,29.82S19.82,34.62,19.82,25.89a10.18,10.18,0,0,1,20.36,0C40.18,34.62,30,44.07,30,44.07Z"/></g></g></svg>