<svg xmlns="http://www.w3.org/2000/svg" xmlns:xlink="http://www.w3.org/1999/xlink" viewBox="0 0 60 60"><defs><style>.cls-1{isolation:isolate;}.cls-2{fill:url(#linear-gradient);}.cls-3{mix-blend-mode:color;}.cls-4{fill:#7c3a74;}.cls-5{fill:#393939;}.cls-6{fill:#fff;}</style><linearGradient id="linear-gradient" x1="8491.06" y1="2136.45" x2="8543.38" y2="2084.13" gradientTransform="translate(8547.22 2140.29) rotate(180)" gradientUnits="userSpaceOnUse"><stop offset="0" stop-color="#a6a6a6"/><stop offset="0.14" stop-color="#818181"/><stop offset="0.34" stop-color="#535353"/><stop offset="0.53" stop-color="#2f2f2f"/><stop offset="0.71" stop-color="#151515"/><stop offset="0.87" stop-color="#050505"/><stop offset="1"/></linearGradient></defs><g class="cls-1"><g id="Layer_1" data-name="Layer 1"><rect class="cls-2" x="0.91" y="0.91" width="58.18" height="58.18" rx="10"/><g class="cls-3"><rect class="cls-4" x="1.41" y="1.41" width="57.18" height="57.18" rx="9.5"/><path class="cls-5" d="M10.91.91v1H49.09a9,9,0,0,1,9,9V49.09a9,9,0,0,1-9,9H10.91a9,9,0,0,1-9-9V10.91a9,9,0,0,1,9-9v-1m0,0a10,10,0,0,0-10,10V49.09a10,10,0,0,0,10,10H49.09a10,10,0,0,0,10-10V10.91a10,10,0,0,0-10-10Z"/></g><path class="cls-6" d="M42.53,42.49v-2.8h0V36.24h0V32.79h0V29.33h0V26a.59.59,0,0,0-.46-.57l-3.55-.74V17.85a.59.59,0,0,0-.46-.58l-9.13-2h-.25l-7.57,1.5a.58.58,0,0,0-.47.57v5.33l-2.53.51a.58.58,0,0,0-.48.57V42.49h-.14a.59.59,0,0,0-.58.59.58.58,0,0,0,.58.58h25a.58.58,0,0,0,.58-.58A.59.59,0,0,0,42.53,42.49Zm-1.17-7L25.54,32.26V30l15.82,3.26ZM25.54,33.46l15.82,3.26V39L25.54,35.72Zm15.82-1.39L25.54,28.81V26.55l15.82,3.26ZM25.54,36.91l15.82,3.26v2.32H25.54Zm15.82-8.3L25.54,25.36V23.13l15.82,3.33Zm-4-4.19-8-1.67V16.57l8,1.75Zm-15.54-6.6,6.41-1.27V22.5l-3.14-.66h-.24l-3,.6Zm-3,6.41,5.57-1.11v2.2l-4.44,1a.58.58,0,0,0,.25,1.14l4.19-.93v2.26l-4.44,1a.58.58,0,0,0,.25,1.14L24.37,30v2.25l-4.44,1a.59.59,0,0,0-.44.7.58.58,0,0,0,.69.45l4.19-.93v2.26l-4.44,1a.58.58,0,0,0,.25,1.14l4.19-.93v5.62H18.8Z"/><path class="cls-6" d="M31.47,20.63l3.45.71H35a.58.58,0,0,0,.57-.46.59.59,0,0,0-.45-.7l-3.45-.71a.6.6,0,0,0-.7.46A.59.59,0,0,0,31.47,20.63Z"/></g></g></svg>