<svg xmlns="http://www.w3.org/2000/svg" xmlns:xlink="http://www.w3.org/1999/xlink" viewBox="0 0 60 60"><defs><style>.cls-1{isolation:isolate;}.cls-2{fill:url(#linear-gradient);}.cls-3{mix-blend-mode:color;}.cls-4{fill:#7c3a74;}.cls-5{fill:#393939;}.cls-6{fill:#fff;}</style><linearGradient id="linear-gradient" x1="8343.38" y1="2085.31" x2="8291.06" y2="2137.63" gradientTransform="translate(8347.22 2141.47) rotate(180)" gradientUnits="userSpaceOnUse"><stop offset="0" stop-color="#a6a6a6"/><stop offset="0.14" stop-color="#818181"/><stop offset="0.34" stop-color="#535353"/><stop offset="0.53" stop-color="#2f2f2f"/><stop offset="0.71" stop-color="#151515"/><stop offset="0.87" stop-color="#050505"/><stop offset="1"/></linearGradient></defs><g class="cls-1"><g id="Layer_1" data-name="Layer 1"><rect class="cls-2" x="0.91" y="0.91" width="58.18" height="58.18" rx="10"/><g class="cls-3"><rect class="cls-4" x="1.41" y="1.41" width="57.18" height="57.18" rx="9.5"/><path class="cls-5" d="M49.09,1.91a9,9,0,0,1,9,9V49.09a9,9,0,0,1-9,9H10.91a9,9,0,0,1-9-9V10.91a9,9,0,0,1,9-9H49.09m0-1H10.91a10,10,0,0,0-10,10V49.09a10,10,0,0,0,10,10H49.09a10,10,0,0,0,10-10V10.91a10,10,0,0,0-10-10Z"/></g><path class="cls-6" d="M42.8,22.73H37a4.87,4.87,0,0,0,0-.54,7.48,7.48,0,1,0-15,0,4.87,4.87,0,0,0,0,.54H17.2a3.57,3.57,0,0,0-3.56,3.56v14.5a3.57,3.57,0,0,0,3.56,3.56H42.8a3.57,3.57,0,0,0,3.56-3.56V26.29A3.57,3.57,0,0,0,42.8,22.73Zm0,1.43a2.13,2.13,0,0,1,2.13,2.05H35.81a7.55,7.55,0,0,0,.91-2.05ZM25,26.21a6,6,0,0,1-1.54-4,6.34,6.34,0,0,1,.18-1.46l2.79,1.1c0,.12,0,.24,0,.36a3.1,3.1,0,0,0,2.4,3v3a6,6,0,0,1-3.73-1.9v-.09ZM31,21.51a.83.83,0,0,0,0,.15l0,.09a1.61,1.61,0,0,1,.06.44,1.68,1.68,0,0,1-3.36,0,1.61,1.61,0,0,1,.06-.44l0-.09a.83.83,0,0,0,0-.15,1.68,1.68,0,0,1,3.08,0Zm-.83,3.7a3.1,3.1,0,0,0,2.4-3c0-.12,0-.24,0-.36l2.79-1.1a6.34,6.34,0,0,1,.18,1.46,6.07,6.07,0,0,1-5.35,6Zm-.71-9.08a6.06,6.06,0,0,1,5.37,3.27l-2.76,1.09a3.12,3.12,0,0,0-5.22,0L24.13,19.4A6.06,6.06,0,0,1,29.5,16.13Zm-12.3,8h5.08a7.55,7.55,0,0,0,.91,2.05H15.07A2.13,2.13,0,0,1,17.2,24.16ZM42.8,42.93H17.2a2.14,2.14,0,0,1-2.14-2.14V27.63h9.32a7.45,7.45,0,0,0,10.24,0H44.94V40.79A2.14,2.14,0,0,1,42.8,42.93Z"/><path class="cls-6" d="M40,31.42H28.06a.71.71,0,0,0,0,1.42H40a.71.71,0,1,0,0-1.42Z"/><path class="cls-6" d="M40,34.46H28.06a.71.71,0,0,0,0,1.42H40a.71.71,0,1,0,0-1.42Z"/><path class="cls-6" d="M40,37.49H28.06a.72.72,0,0,0,0,1.43H40a.72.72,0,1,0,0-1.43Z"/><path class="cls-6" d="M23.11,34.25a3.26,3.26,0,1,0-4.25,0,5,5,0,0,0-2.77,4.43v1.39a.71.71,0,0,0,.72.71h8.44a.71.71,0,0,0,.71-.71V38.72A4.92,4.92,0,0,0,23.11,34.25ZM21,30a1.84,1.84,0,1,1-1.83,1.83A1.83,1.83,0,0,1,21,30Zm3.58,9.43h-7v-.68a3.51,3.51,0,1,1,7,0Z"/></g></g></svg>