<svg xmlns="http://www.w3.org/2000/svg" xmlns:xlink="http://www.w3.org/1999/xlink" viewBox="0 0 60 60"><defs><style>.cls-1{isolation:isolate;}.cls-2{fill:url(#linear-gradient);}.cls-3{mix-blend-mode:color;}.cls-4{fill:#7c3a74;}.cls-5{fill:#393939;}.cls-6{fill:none;}.cls-7{fill:#fff;}</style><linearGradient id="linear-gradient" x1="8491.06" y1="2137.63" x2="8543.38" y2="2085.31" gradientTransform="translate(8547.22 2141.47) rotate(180)" gradientUnits="userSpaceOnUse"><stop offset="0" stop-color="#a6a6a6"/><stop offset="0.14" stop-color="#818181"/><stop offset="0.34" stop-color="#535353"/><stop offset="0.53" stop-color="#2f2f2f"/><stop offset="0.71" stop-color="#151515"/><stop offset="0.87" stop-color="#050505"/><stop offset="1"/></linearGradient></defs><g class="cls-1"><g id="Layer_1" data-name="Layer 1"><rect class="cls-2" x="0.91" y="0.91" width="58.18" height="58.18" rx="10"/><g class="cls-3"><rect class="cls-4" x="1.41" y="1.41" width="57.18" height="57.18" rx="9.5"/><path class="cls-5" d="M49.09,1.91a9,9,0,0,1,9,9V49.09a9,9,0,0,1-9,9H10.91a9,9,0,0,1-9-9V10.91a9,9,0,0,1,9-9H49.09m0-1H10.91a10,10,0,0,0-10,10V49.09a10,10,0,0,0,10,10H49.09a10,10,0,0,0,10-10V10.91a10,10,0,0,0-10-10Z"/></g><path class="cls-6" d="M25.87,35.27a.73.73,0,0,1-.73.73H16.49a.73.73,0,0,1-.73-.73V33.84a5.06,5.06,0,0,1,2.83-4.53,3.33,3.33,0,1,1,4.36,0,5,5,0,0,1,2.92,4.57Zm14.32-1.22H28a.73.73,0,1,1,0-1.46H40.19a.73.73,0,0,1,0,1.46Zm0-3.11H28a.73.73,0,0,1,0-1.46H40.19a.73.73,0,1,1,0,1.46Zm.73-3.84a.73.73,0,0,1-.73.73H28a.74.74,0,0,1,0-1.47H40.19A.73.73,0,0,1,40.92,27.1Z"/><path class="cls-6" d="M20.81,30.25a3.59,3.59,0,0,0-3.59,3.59v.7h7.19v-.7A3.6,3.6,0,0,0,20.81,30.25Z"/><path class="cls-6" d="M20.74,30.1a1.88,1.88,0,1,0-1.87-1.88A1.88,1.88,0,0,0,20.74,30.1Z"/><path class="cls-7" d="M28,26.36a.74.74,0,0,0,0,1.47H40.19a.74.74,0,0,0,0-1.47Z"/><path class="cls-7" d="M40.19,29.48H28a.73.73,0,0,0,0,1.46H40.19a.73.73,0,1,0,0-1.46Z"/><path class="cls-7" d="M40.19,32.59H28a.73.73,0,1,0,0,1.46H40.19a.73.73,0,0,0,0-1.46Z"/><path class="cls-7" d="M23,29.27a3.34,3.34,0,1,0-4.36,0,5.06,5.06,0,0,0-2.83,4.53v1.43a.73.73,0,0,0,.73.73h8.65a.73.73,0,0,0,.73-.73V33.84A5,5,0,0,0,23,29.27Zm-2.21-4.39a1.88,1.88,0,1,1-1.87,1.88A1.88,1.88,0,0,1,20.74,24.88Zm3.67,9.66H17.22v-.7a3.6,3.6,0,0,1,7.19,0Z"/><path class="cls-7" d="M43.11,18.93H16.89a3.65,3.65,0,0,0-3.64,3.65V37.42a3.65,3.65,0,0,0,3.64,3.65H43.11a3.65,3.65,0,0,0,3.64-3.65V22.58A3.65,3.65,0,0,0,43.11,18.93Zm0,20.68H16.89a2.19,2.19,0,0,1-2.18-2.19V22.49a2.19,2.19,0,0,1,2.18-2.1H43.11a2.19,2.19,0,0,1,2.18,2.1V37.42A2.19,2.19,0,0,1,43.11,39.61Z"/></g></g></svg>