<svg id="Layer_1" data-name="Layer 1" xmlns="http://www.w3.org/2000/svg" viewBox="0 0 186 34.25"><defs><style>.cls-1{fill:#fff;}</style></defs><path class="cls-1" d="M15.78,2.42a8.58,8.58,0,0,0-7,3.47L8.54,3.66a.73.73,0,0,0-.74-.74H2.74A.7.7,0,0,0,2,3.66V35.88a.71.71,0,0,0,.74.75H8.69a.71.71,0,0,0,.75-.75V25a8.48,8.48,0,0,0,6.34,2.53c6.79,0,11.75-5.51,11.75-12.45S22.57,2.42,15.78,2.42Zm-.89,18.34c-3.27,0-5.45-2.38-5.45-5.7s2.18-5.85,5.45-5.85,5.5,2.38,5.5,5.85A5.39,5.39,0,0,1,14.89,20.76Z" transform="translate(-2 -2.37)"/><path class="cls-1" d="M53.17,14.52c0-6.55-4.51-12.1-11.55-12.1A12.24,12.24,0,0,0,29.27,15c0,7,5.26,12.6,12.89,12.6a12.65,12.65,0,0,0,9-3.72c.4-.4.4-.75.1-1.09l-2.57-2.48a.73.73,0,0,0-1.09-.1,8.27,8.27,0,0,1-4.71,1.44c-3.32,0-5.51-1.39-6.25-4H51.38C52.92,17.59,53.17,16.55,53.17,14.52ZM36.56,12.88a4.89,4.89,0,0,1,5.11-4.16,4.71,4.71,0,0,1,4.9,4.16Z" transform="translate(-2 -2.37)"/><path class="cls-1" d="M54.59,26.46V3.66a.71.71,0,0,1,.75-.74H61a.73.73,0,0,1,.74.74L62,6.49a6.89,6.89,0,0,1,6.25-4.12A5.16,5.16,0,0,1,71.6,3.61a.9.9,0,0,1,.25,1.09L70.21,9c-.2.59-.64.69-1.24.54a6.06,6.06,0,0,0-2-.4C63.86,9.11,62,11.4,62,14.37V26.46a.71.71,0,0,1-.74.75H55.34A.71.71,0,0,1,54.59,26.46Z" transform="translate(-2 -2.37)"/><path class="cls-1" d="M69.76,14.91A12.4,12.4,0,0,1,91.57,6.74a.72.72,0,0,1,0,1L88,11.25c-.35.34-.7.29-1.09-.05A6.47,6.47,0,0,0,82.4,9.31a5.42,5.42,0,0,0-5.5,5.6,5.48,5.48,0,0,0,5.5,5.75A6.81,6.81,0,0,0,87,18.78a.7.7,0,0,1,1.09,0l3.57,3.42a.71.71,0,0,1,0,1,12.51,12.51,0,0,1-22-8.33Z" transform="translate(-2 -2.37)"/><path class="cls-1" d="M116,2.92h-5a.73.73,0,0,0-.75.74l-.24,2.23a8.58,8.58,0,0,0-7-3.47c-6.79,0-11.75,5.6-11.75,12.69s5,12.45,11.75,12.45a8.52,8.52,0,0,0,6.94-3.18l.29,2.08a.74.74,0,0,0,.75.75h5a.71.71,0,0,0,.75-.75V3.66A.71.71,0,0,0,116,2.92ZM103.82,20.76a5.39,5.39,0,0,1-5.5-5.7c0-3.47,2.33-5.85,5.5-5.85s5.45,2.58,5.45,5.85S107.09,20.76,103.82,20.76Z" transform="translate(-2 -2.37)"/><path class="cls-1" d="M118.61,3.76c-.2-.54,0-.84.6-.84h6a.92.92,0,0,1,.9.59l5.45,15,5.45-15a.92.92,0,0,1,.89-.59H144c.55,0,.79.3.6.84L131.75,36a.92.92,0,0,1-.9.6h-5.79c-.55,0-.9-.3-.6-.85L128,27.26Z" transform="translate(-2 -2.37)"/><path class="cls-1" d="M162.09,20c0,5-5.05,7.68-9.56,7.68a12.47,12.47,0,0,1-9.32-4.06.75.75,0,0,1,0-1l2.18-3.17c.3-.35.69-.25,1.14,0a11.41,11.41,0,0,0,5.75,2c1.14,0,2.58-.25,2.58-1.59,0-3.27-11.21-1.73-11.21-9.91,0-4.91,4.22-7.64,8.58-7.64A11.18,11.18,0,0,1,160.76,6a.78.78,0,0,1,0,1L158.48,10c-.3.39-.65.24-1.1,0-1.88-1.09-2.92-1.69-4.41-1.69s-2.18.84-2.18,1.69C150.79,13.38,162.09,11.05,162.09,20Z" transform="translate(-2 -2.37)"/><path class="cls-1" d="M175.31,2.37A12.67,12.67,0,1,0,188,15.06,12.61,12.61,0,0,0,175.31,2.37Zm0,18.44a5.55,5.55,0,0,1-5.5-5.75,5.51,5.51,0,1,1,11,0A5.52,5.52,0,0,1,175.31,20.81Z" transform="translate(-2 -2.37)"/></svg>