<svg id="Layer_1" data-name="Layer 1" xmlns="http://www.w3.org/2000/svg" viewBox="0 0 300 55.25"><defs><style>.cls-1{fill:#fff;}</style></defs><path class="cls-1" d="M24.23,2.46A13.82,13.82,0,0,0,13,8.05l-.4-3.6a1.18,1.18,0,0,0-1.2-1.19H3.2A1.13,1.13,0,0,0,2,4.45v52a1.13,1.13,0,0,0,1.2,1.2h9.59a1.13,1.13,0,0,0,1.2-1.2V38.91A13.7,13.7,0,0,0,24.23,43c11,0,19-8.87,19-20.07C43.18,11.49,35.18,2.46,24.23,2.46ZM22.79,32c-5.28,0-8.8-3.84-8.8-9.2s3.52-9.43,8.8-9.43c5.11,0,8.87,3.84,8.87,9.43S27.9,32,22.79,32Z" transform="translate(-2 -2.38)"/><path class="cls-1" d="M84.53,22c0-10.55-7.28-19.5-18.63-19.5S46,11.41,46,22.68,54.47,43,66.78,43a20.44,20.44,0,0,0,14.55-6,1.14,1.14,0,0,0,.16-1.76l-4.16-4a1.19,1.19,0,0,0-1.76-.16A13.24,13.24,0,0,1,68,33.4c-5.36,0-8.88-2.24-10.08-6.48H81.65C84.13,26.92,84.53,25.24,84.53,22ZM57.74,19.33c.88-4.56,4.24-6.72,8.24-6.72a7.61,7.61,0,0,1,7.91,6.72Z" transform="translate(-2 -2.38)"/><path class="cls-1" d="M86.83,41.23V4.45A1.13,1.13,0,0,1,88,3.26h9.19a1.18,1.18,0,0,1,1.2,1.19L98.74,9c2-3.84,5.28-6.63,10.08-6.63a8.21,8.21,0,0,1,5.43,2,1.4,1.4,0,0,1,.4,1.75L112,13c-.32,1-1,1.12-2,.88a9.82,9.82,0,0,0-3.28-.64c-5,0-7.92,3.68-7.92,8.47V41.23a1.13,1.13,0,0,1-1.2,1.2H88A1.13,1.13,0,0,1,86.83,41.23Z" transform="translate(-2 -2.38)"/><path class="cls-1" d="M111.3,22.6A20,20,0,0,1,146.48,9.41a1.16,1.16,0,0,1-.08,1.68l-5.76,5.6c-.56.56-1.12.48-1.76-.08a10.4,10.4,0,0,0-7.2-3,8.74,8.74,0,0,0-8.87,9c0,5.2,3.68,9.28,8.87,9.28a11,11,0,0,0,7.44-3,1.13,1.13,0,0,1,1.76,0l5.76,5.52a1.16,1.16,0,0,1,.08,1.68A20.18,20.18,0,0,1,111.3,22.6Z" transform="translate(-2 -2.38)"/><path class="cls-1" d="M185.81,3.26h-8.15a1.18,1.18,0,0,0-1.2,1.19l-.4,3.6a13.81,13.81,0,0,0-11.27-5.59c-11,0-18.95,9-18.95,20.46,0,11.2,8,20.07,18.95,20.07A13.77,13.77,0,0,0,176,37.88l.48,3.35a1.18,1.18,0,0,0,1.2,1.2h8.15a1.13,1.13,0,0,0,1.2-1.2V4.45A1.13,1.13,0,0,0,185.81,3.26ZM166.22,32c-5.11,0-8.87-3.76-8.87-9.2s3.76-9.43,8.87-9.43c5.28,0,8.8,4.16,8.8,9.43S171.5,32,166.22,32Z" transform="translate(-2 -2.38)"/><path class="cls-1" d="M190.08,4.61c-.32-.87.08-1.35,1-1.35h9.68a1.45,1.45,0,0,1,1.43,1L211,28.36l8.79-24.15a1.47,1.47,0,0,1,1.44-1H231c.88,0,1.28.48,1,1.35L211.27,56.66a1.46,1.46,0,0,1-1.44,1h-9.35c-.88,0-1.44-.48-1-1.36l5.67-13.75Z" transform="translate(-2 -2.38)"/><path class="cls-1" d="M260.22,30.84c0,8-8.16,12.39-15.44,12.39a20.17,20.17,0,0,1-15-6.55,1.22,1.22,0,0,1,0-1.6L233.27,30c.48-.56,1.12-.4,1.84,0,3.6,2.24,6.72,3.28,9.28,3.28,1.83,0,4.15-.4,4.15-2.56,0-5.28-18.07-2.8-18.07-16,0-7.92,6.8-12.31,13.84-12.31a18,18,0,0,1,13.75,5.91A1.23,1.23,0,0,1,258,10l-3.6,4.72c-.48.64-1,.4-1.76-.08-3-1.76-4.72-2.72-7.12-2.72S242,13.25,242,14.61C242,20.13,260.22,16.37,260.22,30.84Z" transform="translate(-2 -2.38)"/><path class="cls-1" d="M281.53,2.38A20.43,20.43,0,1,0,302,22.84,20.34,20.34,0,0,0,281.53,2.38Zm0,29.74a9,9,0,0,1-8.87-9.28c0-5.43,4-9.35,8.87-9.35s8.88,3.92,8.88,9.35A8.91,8.91,0,0,1,281.53,32.12Z" transform="translate(-2 -2.38)"/></svg>